<svg xmlns="http://www.w3.org/2000/svg" version="1.1" xmlns:xlink="http://www.w3.org/1999/xlink" xmlns:svgjs="http://svgjs.dev/svgjs" width="1500" height="1500" viewBox="0 0 1500 1500"><rect width="1500" height="1500" fill="#ffffff"></rect><g transform="matrix(0.6666666666666666,0,0,0.6666666666666666,249.39393939393938,658.9249322642136)"><svg viewBox="0 0 396 72" data-background-color="#ffffff" preserveAspectRatio="xMidYMid meet" height="272" width="1500" xmlns="http://www.w3.org/2000/svg" xmlns:xlink="http://www.w3.org/1999/xlink"><g id="tight-bounds" transform="matrix(1,0,0,1,0.2400000000000091,0.16215924803287862)"><svg viewBox="0 0 395.52 71.67568150393426" height="71.67568150393426" width="395.52"><g><svg viewBox="0 0 505.9646293614753 91.69033077055332" height="71.67568150393426" width="395.52"><g transform="matrix(1,0,0,1,110.44462936147535,25.98471939444952)"><svg viewBox="0 0 395.52 39.720891981654276" height="39.720891981654276" width="395.52"><g id="textblocktransform"><svg viewBox="0 0 395.52 39.720891981654276" height="39.720891981654276" width="395.52" id="textblock"><g><svg viewBox="0 0 395.52 39.720891981654276" height="39.720891981654276" width="395.52"><g transform="matrix(1,0,0,1,0,0)"><svg width="395.52" viewBox="4 -36.01 460.1 46.51" height="39.720891981654276" data-palette-color="#919591"><g class="wordmark-text-0" data-fill-palette-color="primary" id="text-0"><path d="M26.49-14.99L9.5-14.99Q8.47-14.99 7.56-15.39 6.64-15.8 5.96-16.47 5.27-17.14 4.88-18.05 4.49-18.97 4.49-20L4.49-20 4.49-30Q4.49-31.03 4.88-31.95 5.27-32.86 5.96-33.53 6.64-34.2 7.56-34.61 8.47-35.01 9.5-35.01L9.5-35.01 26.49-35.01Q27.51-35.01 28.43-34.61 29.35-34.2 30.03-33.53 30.71-32.86 31.1-31.95 31.49-31.03 31.49-30L31.49-30 31.49-25.49 26.49-25.49 26.49-30 9.5-30 9.5-20 26.49-20Q27.51-20 28.43-19.6 29.35-19.21 30.03-18.53 30.71-17.85 31.1-16.93 31.49-16.02 31.49-14.99L31.49-14.99 31.49-5Q31.49-3.98 31.1-3.06 30.71-2.15 30.03-1.46 29.35-0.78 28.43-0.39 27.51 0 26.49 0L26.49 0 9.01 0Q7.98 0 7.07-0.39 6.15-0.78 5.47-1.46 4.79-2.15 4.39-3.06 4-3.98 4-5L4-5 4-9.5 9.01-9.5 9.01-5 26.49-5 26.49-14.99ZM46.56 10.5L41.77 10.5 47.21-2.34 37.01-26 42.06-26 49.66-8.11 57.25-26 62.3-26 46.56 10.5ZM67.3-4.81L67.3-21.19Q67.3-22.19 67.68-23.07 68.06-23.95 68.71-24.6 69.36-25.24 70.23-25.62 71.11-26 72.09-26L72.09-26 85.49-26 85.49-36.01 90.3-36.01 90.3 0 85.49 0 85.49-4.39Q85.42-3.49 85-2.69 84.59-1.88 83.94-1.28 83.3-0.68 82.47-0.34 81.64 0 80.71 0L80.71 0 72.09 0Q71.11 0 70.23-0.38 69.36-0.76 68.71-1.4 68.06-2.05 67.68-2.93 67.3-3.81 67.3-4.81L67.3-4.81ZM72.09-21.19L72.09-4.81 85.49-4.81 85.49-21.19 72.09-21.19ZM121.31-21.19L121.31 0 116.5 0 116.5-21.19 103.09-21.19 103.09 0 98.31 0 98.31-26 103.09-26 103.09-21.41Q103.14-22.36 103.53-23.21 103.92-24.05 104.57-24.67 105.22-25.29 106.07-25.65 106.93-26 107.9-26L107.9-26 116.5-26Q117.5-26 118.38-25.62 119.26-25.24 119.9-24.6 120.55-23.95 120.93-23.07 121.31-22.19 121.31-21.19L121.31-21.19ZM151.31-21.19L151.31-10.55 134.1-10.55 134.1-4.81 151.31-4.81 151.31 0 134.1 0Q133.12 0 132.24-0.38 131.36-0.76 130.72-1.4 130.07-2.05 129.69-2.93 129.31-3.81 129.31-4.81L129.31-4.81 129.31-21.19Q129.31-22.19 129.69-23.07 130.07-23.95 130.72-24.6 131.36-25.24 132.24-25.62 133.12-26 134.1-26L134.1-26 146.5-26Q147.5-26 148.38-25.62 149.26-25.24 149.9-24.6 150.55-23.95 150.93-23.07 151.31-22.19 151.31-21.19L151.31-21.19ZM146.5-21.19L134.1-21.19 134.1-15.36 146.5-15.36 146.5-21.19ZM165.86 10.5L161.07 10.5 166.52-2.34 156.31-26 161.36-26 168.96-8.11 176.55-26 181.6-26 165.86 10.5Z" fill="#919591" data-fill-palette-color="primary"></path><path d="M201.08-5L201.08-30Q201.08-31.03 201.47-31.95 201.86-32.86 202.54-33.53 203.23-34.2 204.14-34.61 205.06-35.01 206.08-35.01L206.08-35.01 225.08-35.01Q226.1-35.01 227.02-34.61 227.94-34.2 228.62-33.53 229.3-32.86 229.69-31.95 230.08-31.03 230.08-30L230.08-30 230.08-25.49 225.08-25.49 225.08-30 206.08-30 206.08-5 225.08-5 225.08-9.5 230.08-9.5 230.08-5Q230.08-3.98 229.69-3.06 229.3-2.15 228.62-1.46 227.94-0.78 227.02-0.39 226.1 0 225.08 0L225.08 0 206.08 0Q205.06 0 204.14-0.39 203.23-0.78 202.54-1.46 201.86-2.15 201.47-3.06 201.08-3.98 201.08-5L201.08-5ZM237.6-4.81L237.6-11.35Q237.6-12.35 237.98-13.22 238.36-14.09 239-14.75 239.65-15.41 240.53-15.78 241.41-16.16 242.39-16.16L242.39-16.16 254.79-16.16 254.79-21.19 239.09-21.19 239.09-26 254.79-26Q255.79-26 256.67-25.62 257.55-25.24 258.19-24.6 258.84-23.95 259.22-23.07 259.6-22.19 259.6-21.19L259.6-21.19 259.6 0 254.79 0 254.79-4.39Q254.72-3.49 254.3-2.69 253.89-1.88 253.24-1.28 252.59-0.68 251.76-0.34 250.93 0 250 0L250 0 242.39 0Q241.41 0 240.53-0.38 239.65-0.76 239-1.4 238.36-2.05 237.98-2.93 237.6-3.81 237.6-4.81L237.6-4.81ZM242.39-11.35L242.39-4.81 254.79-4.81 254.79-11.35 242.39-11.35ZM282.3-21.19L272.39-21.19 272.39 0 267.6 0 267.6-26 272.39-26 272.39-21.41Q272.44-22.36 272.83-23.21 273.22-24.05 273.87-24.67 274.51-25.29 275.37-25.65 276.22-26 277.2-26L277.2-26 282.3-26Q283.3-26 284.17-25.62 285.03-25.24 285.69-24.6 286.35-23.95 286.73-23.07 287.11-22.19 287.11-21.19L287.11-21.19 287.11-16.8 282.3-16.8 282.3-21.19Z" fill="#636365" data-fill-palette-color="secondary"></path><path d="M334.25-26.49L334.25-22.51Q334.25-15.19 328-14.16L328-14.16 334.59 0 329.05 0 322.56-13.99 311.59-13.99 311.59 0 306.59 0 306.59-35.01 325.75-35.01Q334.25-35.01 334.25-26.49L334.25-26.49ZM311.59-30L311.59-18.99 325.49-18.99Q327.49-18.99 328.37-19.87 329.25-20.75 329.25-22.75L329.25-22.75 329.25-26.25Q329.25-28.25 328.37-29.13 327.49-30 325.49-30L325.49-30 311.59-30ZM364.11-21.19L364.11-10.55 346.9-10.55 346.9-4.81 364.11-4.81 364.11 0 346.9 0Q345.92 0 345.04-0.38 344.16-0.76 343.51-1.4 342.87-2.05 342.49-2.93 342.11-3.81 342.11-4.81L342.11-4.81 342.11-21.19Q342.11-22.19 342.49-23.07 342.87-23.95 343.51-24.6 344.16-25.24 345.04-25.62 345.92-26 346.9-26L346.9-26 359.3-26Q360.3-26 361.18-25.62 362.06-25.24 362.7-24.6 363.35-23.95 363.73-23.07 364.11-22.19 364.11-21.19L364.11-21.19ZM359.3-21.19L346.9-21.19 346.9-15.36 359.3-15.36 359.3-21.19ZM395.11-21.19L395.11 0 390.3 0 390.3-21.19 376.9-21.19 376.9 0 372.11 0 372.11-26 376.9-26 376.9-21.41Q376.95-22.36 377.34-23.21 377.73-24.05 378.37-24.67 379.02-25.29 379.88-25.65 380.73-26 381.71-26L381.71-26 390.3-26Q391.3-26 392.18-25.62 393.06-25.24 393.71-24.6 394.35-23.95 394.73-23.07 395.11-22.19 395.11-21.19L395.11-21.19ZM401.6-21.19L401.6-26 407.95-26 407.95-34.01 412.76-34.01 412.76-26 421.3-26 421.3-21.19 412.76-21.19 412.76-4.81 421.3-4.81 421.3 0 412.76 0Q411.78 0 410.9-0.38 410.02-0.76 409.37-1.4 408.71-2.05 408.33-2.93 407.95-3.81 407.95-4.81L407.95-4.81 407.95-21.19 401.6-21.19ZM429.31-4.81L429.31-11.35Q429.31-12.35 429.69-13.22 430.07-14.09 430.71-14.75 431.36-15.41 432.24-15.78 433.12-16.16 434.09-16.16L434.09-16.16 446.5-16.16 446.5-21.19 430.8-21.19 430.8-26 446.5-26Q447.5-26 448.38-25.62 449.26-25.24 449.9-24.6 450.55-23.95 450.93-23.07 451.31-22.19 451.31-21.19L451.31-21.19 451.31 0 446.5 0 446.5-4.39Q446.42-3.49 446.01-2.69 445.59-1.88 444.95-1.28 444.3-0.68 443.47-0.34 442.64 0 441.71 0L441.71 0 434.09 0Q433.12 0 432.24-0.38 431.36-0.76 430.71-1.4 430.07-2.05 429.69-2.93 429.31-3.81 429.31-4.81L429.31-4.81ZM434.09-11.35L434.09-4.81 446.5-4.81 446.5-11.35 434.09-11.35ZM459.31-36.01L464.1-36.01 464.1 0 459.31 0 459.31-36.01Z" fill="#919591" data-fill-palette-color="primary"></path></g></svg></g></svg></g></svg></g></svg></g><g><svg viewBox="0 0 91.69033077055332 91.69033077055332" height="91.69033077055332" width="91.69033077055332"><g><svg></svg></g><g id="icon-0"><svg viewBox="0 0 91.69033077055332 91.69033077055332" height="91.69033077055332" width="91.69033077055332"><g><path d="M0 45.845c0-25.32 20.526-45.845 45.845-45.845 25.32 0 45.845 20.526 45.845 45.845 0 25.32-20.526 45.845-45.845 45.845-25.32 0-45.845-20.526-45.845-45.845zM45.845 88.108c23.341 0 42.263-18.922 42.263-42.263 0-23.341-18.922-42.263-42.263-42.263-23.341 0-42.263 18.922-42.263 42.263 0 23.341 18.922 42.263 42.263 42.263z" data-fill-palette-color="accent" fill="#636365" stroke="transparent"></path></g><g transform="matrix(1,0,0,1,19.637221563964363,24.883036509959776)"><svg viewBox="0 0 52.41588764262459 41.924257750633764" height="41.924257750633764" width="52.41588764262459"><g><svg xmlns:x="http://ns.adobe.com/Extensibility/1.0/" xmlns:i="http://ns.adobe.com/AdobeIllustrator/10.0/" xmlns:graph="http://ns.adobe.com/Graphs/1.0/" xmlns="http://www.w3.org/2000/svg" xmlns:xlink="http://www.w3.org/1999/xlink" xmlns:a="http://ns.adobe.com/AdobeSVGViewerExtensions/3.0/" version="1.0" x="0" y="0" viewBox="1.019 14.238 97.981 78.369" enable-background="new 0 0 100 100" xml:space="preserve" height="41.924257750633764" width="52.41588764262459" class="icon-dxe-0" data-fill-palette-color="accent" id="dxe-0"><g fill="#636365" data-fill-palette-color="accent"><path d="M97.943 37.106C96.912 35.435 94.797 34.869 93.668 34.869 92.537 34.869 92.291 36.074 92.291 36.074V40.227S92.293 40.234 92.293 40.245L91.094 40.842C90.184 36.33 89.074 31.035 88.096 26.967 85.799 17.425 84.231 14.238 82.573 14.238H79.979C79.469 14.238 79.026 14.41 78.754 14.672 78.754 14.672 55.039 14.239 50.033 14.238H49.988C44.981 14.238 21.268 14.672 21.268 14.672 20.997 14.41 20.55 14.238 20.042 14.238H17.447C15.789 14.238 14.219 17.425 11.924 26.967 10.946 31.035 9.836 36.33 8.926 40.842L7.725 40.245 7.728 40.227V36.074S7.482 34.869 6.352 34.869 3.108 35.434 2.076 37.106 1.019 39.931 1.019 41.086C1.019 42.242 1.633 44.698 3.771 45.461S6.917 46.1 6.917 45.437C6.917 45.413 6.917 45.383 6.92 45.35L7.985 45.574C7.966 45.665 7.948 45.762 7.931 45.849A18.67 18.67 0 0 0 17.3 48.343H82.713A18.7 18.7 0 0 0 92.084 45.849C92.064 45.762 92.047 45.665 92.029 45.574L93.093 45.35 93.097 45.438C93.097 46.101 94.103 46.224 96.242 45.462 98.385 44.699 99 42.243 99 41.087 99 39.932 98.977 38.778 97.943 37.106M17.186 47.303A2.917 2.917 0 1 1 17.184 41.469 2.917 2.917 0 0 1 17.186 47.303M50.01 40.521C44.192 40.483 35.605 40.345 27.031 39.908 17.9 39.444 15.489 39.189 14.911 36.278 13.581 29.578 17.57 18.636 17.57 18.636S28.415 17.614 36.744 17.403C40.62 17.305 45.684 17.298 49.99 17.32H50.034C54.339 17.299 59.403 17.305 63.28 17.403 71.606 17.614 82.452 18.636 82.452 18.636S86.44 29.578 85.11 36.278C84.534 39.189 82.122 39.444 72.991 39.908 64.414 40.346 55.828 40.484 50.01 40.521M82.834 47.303A2.916 2.916 0 0 1 79.92 44.386 2.916 2.916 0 0 1 82.834 41.468 2.92 2.92 0 0 1 85.756 44.386 2.92 2.92 0 0 1 82.834 47.303" fill="#636365" data-fill-palette-color="accent"></path><path d="M77.955 57.33C78.158 57.33 78.357 57.344 78.551 57.365 79.811 55.369 81.906 54.121 84.102 52.832 85.063 52.27 86.057 51.686 86.987 51.027 87.68 50.539 88.065 49.572 88.243 48.355A19.8 19.8 0 0 1 82.718 49.129H17.304C15.235 49.129 13.389 48.822 11.777 48.355 11.957 49.572 12.343 50.539 13.034 51.027 13.965 51.685 14.959 52.267 15.921 52.832 18.115 54.121 20.211 55.371 21.471 57.367 21.676 57.344 21.885 57.33 22.097 57.33 24.593 57.33 26.617 58.904 26.617 60.846 26.617 61.151 26.562 61.444 26.471 61.721H73.583A2.8 2.8 0 0 1 73.437 60.846C73.436 58.904 75.461 57.33 77.955 57.33" fill="#636365" data-fill-palette-color="accent"></path><path d="M92.289 46.666A19.3 19.3 0 0 1 89.059 48.099C88.875 49.677 88.401 50.992 87.44 51.67 86.485 52.348 85.477 52.94 84.499 53.512 82.511 54.68 80.604 55.813 79.407 57.52 81.19 57.989 82.475 59.301 82.475 60.846 82.475 61.18 82.411 61.5 82.301 61.805 87.711 62.004 89.666 62.647 90.365 63.047L90.215 63.904A0.4 0.4 0 0 1 90.082 63.785C90.074 63.775 88.908 62.808 81.885 62.58 81.11 63.642 79.641 64.361 77.955 64.361 76.25 64.361 74.764 63.627 73.996 62.541 70.713 62.547 67.086 62.539 67.086 62.539 66.893 63.719 66.199 64.598 65.371 64.598H34.65C33.821 64.598 33.128 63.719 32.933 62.539 32.933 62.539 29.33 62.547 26.057 62.541 25.287 63.627 23.804 64.361 22.097 64.361 20.411 64.361 18.943 63.642 18.166 62.578 11.115 62.807 9.947 63.773 9.939 63.785A0.4 0.4 0 0 1 9.805 63.904L9.655 63.047C10.356 62.645 12.316 62.004 17.751 61.803A2.8 2.8 0 0 1 17.577 60.846C17.577 59.307 18.851 58 20.621 57.528 19.423 55.817 17.516 54.682 15.522 53.512 14.547 52.94 13.538 52.348 12.58 51.67S11.146 49.675 10.962 48.099A19.3 19.3 0 0 1 7.733 46.666C4.469 51.049 4.915 63.276 7.579 71.791 7.575 71.84 7.566 71.887 7.566 71.941V89.953C7.566 91.418 9.679 92.607 12.284 92.607H13.078C15.684 92.607 17.796 91.418 17.796 89.953V84.168H82.223V89.953C82.223 91.418 84.334 92.607 86.942 92.607H87.737C90.341 92.607 92.452 91.418 92.452 89.953V71.941C92.452 71.886 92.446 71.839 92.442 71.791 95.107 63.275 95.553 51.049 92.289 46.666M21.655 77.801A2.674 2.674 0 1 1 21.655 72.453 2.673 2.673 0 0 1 24.329 75.125 2.67 2.67 0 0 1 21.655 77.801M71.207 74.771C70.506 77.679 68.283 79.283 65.793 79.283H34.229C31.737 79.283 29.517 77.679 28.815 74.771 28.815 74.771 27.061 70.259 33.326 70.259H66.692C72.959 70.26 71.207 74.771 71.207 74.771M78.363 77.801A2.67 2.67 0 0 1 75.691 75.125 2.675 2.675 0 1 1 78.363 77.801" fill="#636365" data-fill-palette-color="accent"></path></g></svg></g></svg></g></svg></g></svg></g></svg></g><defs></defs></svg><rect width="395.52" height="71.67568150393426" fill="none" stroke="none" visibility="hidden"></rect></g></svg></g></svg>